<svg xmlns="http://www.w3.org/2000/svg" viewBox="0 0 32 32">
  <!-- Dark background rounded -->
  <rect width="32" height="32" rx="7" fill="#0c0e14"/>
  <!-- layers-half icon scaled to fit, centered, in Janus blue -->
  <g transform="translate(4, 4) scale(1.5)" fill="#6ea8fe">
    <path d="M8.235 1.559a.5.5 0 0 0-.47 0l-7.5 4a.5.5 0 0 0 0 .882L3.188 8 .264 9.559a.5.5 0 0 0 0 .882l7.5 4a.5.5 0 0 0 .47 0l7.5-4a.5.5 0 0 0 0-.882L12.813 8l2.922-1.559a.5.5 0 0 0 0-.882zM8 9.433 1.562 6 8 2.567 14.438 6z"/>
  </g>
</svg>
